<svg xmlns="http://www.w3.org/2000/svg" viewBox="0 0 205 205">
	<a transform="matrix(1.1349 0 0 1.08494 -2.285 1.1)">
		<path fill="#068bac" d="M97.554 185.32c-6.227-1.09-13.982-4.056-19.083-7.3-4.523-2.875-12.878-12.556-16.68-18.313-1.219-1.844-2.203-3.74-3.27-4.415-1.069-.675-3.202-.128-5.376-.427-9.287-1.277-14.933-7.516-14.925-16.49.006-6.904 1.708-11.544 5.436-14.817 4.64-4.073 10.135-4.906 15.811-2.395 5.175 2.289 7.61 6.51 7.992 13.856l.253 4.855-9.75.286c-7.762.228-9.75.585-9.75 1.75 0 .806.952 2.416 2.115 3.579 1.765 1.765 5.353 2.643 9.594 1.89 2.296-.406 5.88-1.15 8.176-1.558l.078 6.632-7.997 2.587 6.537 6.871c11.206 11.779 24.193 16.825 39.497 16.702 15.157-.121 28.687-6.112 39.25-17.379 3.163-3.373 6.487-7.406 6.487-7.837 0-.43-2.305.571-4.221 1.1-4.65 1.285-8.541-.034-12.095-3.588-2.774-2.774-5.186-8.49-5.186-13.09s1.217-10.945 3.991-13.72c3.35-3.349 8.511-5.044 13.54-4.134 2.604.47 5.068 2.051 8.139 5.22l3.883 5.588-.194-8.933c-.095-4.357-1.628-10.608-2.742-13.928-4.007-11.934-12.48-22.68-23.142-29.345-4.252-2.66-5.432-2.94-10.5-2.505-3.14.27-7.622.048-9.96-.492-3.984-.922-4.25-.85-4.243 1.16.004 1.18-.63 3.115 1.212 3.842 2.455.968 4.187 4.291 2.775 5.851.004.86 1.564 2.113 3.506 2.815 2.712.98 3.5 1.821 3.5 3.732 0 3.184-2.36 4.053-5.472 2.014-3.766-2.468-4.573-1.964-2.977 1.858 1.968 4.708-.256 4.652-2.628 5.273l.338 31.78c.215 0 2.257-3.438 4.38-7.003l3.86-6.483 10.5.112c0 .295-2.238 4.114-4.973 8.008-3.663 5.216-4.742 7.51-4.097 8.713.481.898 2.96 5.007 5.507 9.132l4.633 7.5-10.658.105c-.738-.283-3.046-3.798-5.127-7.81l-3.786-7.295-.015 8.027-.108 7.657h-9.916v-26l-.46-26.184h4.507c1.89 0 3.065-.116 3.697-.491.632-.375.722-1.008.445-2.042-.331-1.237-1.628-2.754-1.636-3.717-.021-2.704-1.795-2.073-3.514 1.25-1.716 3.32-4.508 3.9-6.605 1.373-1.174-1.414-.927-1.982 1.877-4.323 1.776-1.483 3.229-2.888 3.23-3.123 0-.235-1.912-.427-4.25-.427-3.552 0-4.252-.321-4.252-1.955 0-1.235.877-2.162 2.383-2.517 2.155-.509 2.227-.692.75-1.918-2.012-1.67-2.073-2.727-.196-3.447.79-.303 2.59.357 4 1.466 1.41 1.109 2.563 1.815 2.563 1.57 0-.246-.675-2.36-1.5-4.699-2.935-8.319-1.3-13.919 4.812-16.489l3.055-1.284-5.807-2.657c-5.961-2.726-8.909-2.721-5.01.01 1.205.843 2.45 2.437 2.45 3.541 0 1.12-2.32 4.217-5.25 7.007-3.29 3.132-4.783 5.193-4 5.519.688.286 1.25 1.19 1.25 2.008 0 1.035-.837 1.39-2.75 1.167-2.52-.295-2.75-.04-2.75 3.057 0 3.939-2.64 6.38-4.686 4.335-.952-.952-.978-1.939-.114-4.228.62-1.642.92-2.986.666-2.986s-1.494 1.2-2.756 2.668c-1.555 1.808-2.85 2.454-4.022 2.004-2.395-.919-1.654-4.84 1.18-6.248 4.016-1.994 3.836-2.67-.518-1.95-3.806.629-4.25.495-4.25-1.279 0-2.07 1.804-3.195 5.12-3.195 1.532 0 1.894-.589 1.668-2.714-.204-1.928.22-2.819 1.462-3.074 1.314-.269 1.75.297 1.75 2.266v2.624l3.484-2.657 3.483-2.657-3.648-2.475c-2.877-1.953-3.818-2.195-4.455-1.144-3.02 4.983-5.947 6.694-15.953 9.322-5.176 1.36-12.018 2.48-15.206 2.49-4.834.016-6.203-.388-8.25-2.435-1.59-1.59-2.455-3.59-2.455-5.677 0-4.316 6.923-18.398 11.676-23.751 1.935-2.178 4.635-4.112 7.099-5.312 1.232-.6 1.7.164 2.688-.008 2.27-1.88 2.814-.72 4.076.328.328-.37 2.205-1.138 3.22.023.733.84 1.522-.617 2.733-1.923 1.38-1.488 2.508-3.653 2.508-4.81 0-2.872 3.027-5.383 7.327-6.081 3.383-.55 3.542-.748 2.98-3.708-.326-1.72-.696-3.256-.821-3.414-.125-.158-1.382.238-2.793.881-3.007 1.37-5.693.621-5.693-1.587 0-.93 1.21-1.798 3-2.157 3.006-.6 4.213-2.35 1.623-2.35-.758 0-1.938-.675-2.623-1.5-.993-1.196-.993-1.803 0-3 .685-.825 1.622-1.5 2.082-1.5.46 0 1.983 1.236 3.384 2.747l2.547 2.746-1.22-3.232c-.966-2.558-.961-3.492.021-4.474 1.84-1.84 4.695.368 4.647 3.59-.022 1.443.208 2.623.51 2.623.301 0 1.11-.9 1.797-2 1.506-2.41 4.778-2.627 5.643-.373.72 1.875-1.013 4.373-3.033 4.373-.758 0-1.378.445-1.378.988 0 .544 1.013.882 2.25.75 1.663-.176 2.25.284 2.25 1.762 0 1.57-.564 1.935-2.624 1.695l-2.624-.305 2.486 5.023c2.444 4.939 3.04 3.747 5.139 3.651.715-.032.943-1.201 1.631-1.4.788-.226 1.615.432 2.431.366.902-.073 1.68-.83 2.584-.828.991.002 1.843.807 2.828.917 1.082.121 2.185-.505 3.253-.296 1.016.2 1.76 1.155 2.757 1.429 1.113.305 2.378-.214 3.457.196.955.362 1.48 1.463 2.404 1.9.914.432 2.074.165 2.964.646.845.456 1.231 1.529 2.058 2.02.732.434 1.793.194 2.445.741.459.386.414 1.155.811 1.603.725.818 1.993 1.011 2.724 1.822.748.829.99 2.004 1.566 2.96.298.494.692.928.975 1.431.231.413.137 1.142.585 1.294 1.594.54 1.153 1.326 4.447-2.386 2.95-3.325 4.23-4.105 5.872-3.584 1.154.366 4.458 3.16 7.34 6.208l5.241 5.542-.655-3.495c-.397-2.114-.231-3.756.419-4.158 1.743-1.078 3.986 1.528 3.986 4.63 0 1.583.352 2.878.781 2.878.43 0 1.308-1.395 1.951-3.1 1.427-3.78 3.768-3.373 3.768.654 0 2.076-.702 3.243-2.5 4.152-2.624 1.328-2.183 1.613 2.08 1.343 1.42-.09 3.19.571 3.936 1.47 1.145 1.38 1.133 1.775-.08 2.541-.79.499-2.898.64-4.686.312-1.787-.327-3.247-.207-3.243.267.003.474 1.387 1.647 3.074 2.607 1.953 1.112 2.946 2.384 2.733 3.5-.492 2.583-4.46 2.792-6.006.318-1.826-2.924-2.947-2.56-1.757.568.55 1.448.734 3.473.408 4.5-1.208 3.806-5.459 1.325-5.459-3.186 0-2.649-3.967-7.946-5.952-7.946-.576 0-.526 1.365-.526 2.396 0 1.032-.768 2.648-1.07 4.23-.5 2.623.1 3.372 6.862 8.554 20.207 15.486 29.166 39.46 24.282 64.982-2.884 15.074-10.057 27.718-20.811 36.683-8.542 7.122-21.087 12.705-33.785 15.036-8.516 1.563-20.965 2.06-26.658 1.065zm47.75-57.192c-9.657 1.58-5.029 19.32.633 18.428 7.546-1.188 7.504-19.76-.633-18.428zm-87.092 4.18c0-3.696-1.885-5.934-5-5.934-3.114 0-5 2.238-5 5.934 0 1.813.744 1.61 5.13 1.61 4.387 0 4.87.203 4.87-1.61zm1.419-63.54c2.504-.962 1.838-2.165-.907-1.64-1.369.26-2.242.873-1.94 1.36.649 1.052.796 1.066 2.847.28zm-9.45-18.766c.017-.48-.644-.312-1.469.372-.825.685-1.5 1.951-1.5 2.814 0 1.256.293 1.181 1.469-.373.807-1.067 1.482-2.333 1.5-2.813zM14.779 153.858c-7.549-2.89-10.89-7.948-10.89-16.484 0-8.378 4.522-14.299 11.88-17.373 5.515-1.385 20.254-.591 20.267 1.194l-.402 6.26c-.938-.36-7.014-1.104-9.283-1.415-9.95-1.364-16.34 8.242-11.628 17.354 1.87 3.617 4.865 5.164 9.476 5.164l4.716-.374.066-8.07c-1.047-.525-6.695-.108-8.15-.108l-.105-5.427 14.947-.572-.256 19.169c-.007.59-5.333 1.43-9.368 1.7-5.153.343-8.508.04-11.27-1.018zm66.433.356c-7.062-2.023-11-8.053-11-16.847 0-12.157 12.669-20.03 23.933-16.997-.008 2.309-.015 5.205-.023 7.756-3.254-1.238-9.6-.032-11.433 2.585-2.15 3.07-1.902 10.917.437 13.802 1.596 1.97 2.758 2.336 7 2.21l5.086-.15-.013 7.115c-1.915 1.102-10.84 1.427-13.987.526z"/>
		<g style="line-height:1.25;-inkscape-font-specification:'Lohit Malayalam'" word-spacing="0">
			<path fill="#068bac" d="M114.915 105.788h3.942v.833h-1.418v3.444h-1.103v-3.444h-1.421zm4.509 0h1.403l.974 2.289.98-2.29h1.4v4.278h-1.042v-3.129l-.985 2.306h-.7l-.985-2.306v3.129h-1.045z" aria-label="TM" font-family="sans-serif" font-size="5.867" font-weight="700" letter-spacing="0" style="-inkscape-font-specification:'sans-serif Bold'" transform="translate(0 2)"/>
		</g>
	</a>
</svg>
